<?xml version="1.0" standalone="no"?>
<!DOCTYPE svg PUBLIC "-//W3C//DTD SVG 20010904//EN"
 "http://www.w3.org/TR/2001/REC-SVG-20010904/DTD/svg10.dtd">
<svg version="1.0" xmlns="http://www.w3.org/2000/svg"
 width="842.000000pt" height="595.000000pt" viewBox="0 0 842.000000 595.000000"
 preserveAspectRatio="xMidYMid meet">

<g transform="translate(0.000000,595.000000) scale(0.100000,-0.100000)"
fill="#000000" stroke="none">
<path d="M3053 3685 c-237 -43 -474 -177 -632 -358 -68 -77 -101 -127 -150
-224 -163 -326 -139 -703 65 -1010 299 -450 894 -619 1378 -390 119 57 203
114 290 196 166 160 272 357 311 580 8 46 15 85 15 87 0 2 -308 4 -685 4 -661
0 -687 -1 -724 -20 -62 -31 -68 -71 -17 -124 l33 -36 577 0 577 0 -7 -22 c-56
-183 -173 -332 -347 -446 -268 -175 -614 -189 -906 -36 -525 273 -629 963
-207 1379 246 243 618 322 942 200 148 -56 282 -153 367 -266 l51 -69 114 0
113 0 -31 58 c-69 130 -225 280 -384 371 -94 54 -243 107 -353 126 -103 18
-291 18 -390 0z"/>
<path d="M765 3376 c-202 -64 -259 -248 -156 -503 70 -176 254 -393 453 -537
128 -91 309 -180 433 -212 124 -32 270 -31 345 3 143 64 197 201 151 383 -94
373 -541 776 -961 866 -80 17 -211 17 -265 0z"/>
<path d="M5630 1284 c0 -63 5 -124 10 -135 11 -20 60 -27 60 -9 0 6 -7 10 -15
10 -26 0 -35 37 -35 144 0 64 -4 106 -10 106 -6 0 -10 -45 -10 -116z"/>
<path d="M6800 1277 c0 -82 4 -127 12 -135 15 -15 58 -16 58 -2 0 6 -9 10 -19
10 -27 0 -31 18 -31 141 0 66 -4 109 -10 109 -6 0 -10 -48 -10 -123z"/>
<path d="M6950 1284 c0 -127 8 -154 45 -154 31 0 32 12 3 25 -22 9 -23 17 -26
128 -4 154 -22 155 -22 1z"/>
<path d="M1080 1372 c0 -5 19 -62 41 -126 30 -83 46 -116 57 -114 8 2 32 52
58 123 51 140 47 125 31 125 -8 0 -28 -41 -47 -96 -19 -52 -37 -97 -41 -100
-4 -2 -22 40 -42 93 -19 53 -39 99 -46 101 -6 2 -11 -1 -11 -6z"/>
<path d="M5770 1350 c0 -16 5 -30 10 -30 6 0 10 14 10 30 0 17 -4 30 -10 30
-5 0 -10 -13 -10 -30z"/>
<path d="M3900 1355 c0 -8 7 -15 15 -15 8 0 15 7 15 15 0 8 -7 15 -15 15 -8 0
-15 -7 -15 -15z"/>
<path d="M1600 1335 c0 -18 -5 -25 -20 -25 -11 0 -20 -4 -20 -10 0 -5 9 -10
20 -10 18 0 20 -7 20 -68 0 -40 5 -73 12 -80 15 -15 58 -16 58 -2 0 6 -9 10
-19 10 -24 0 -31 19 -31 86 0 51 1 54 25 54 14 0 25 5 25 10 0 6 -11 10 -25
10 -20 0 -25 5 -25 25 0 14 -4 25 -10 25 -5 0 -10 -11 -10 -25z"/>
<path d="M3037 1354 c-4 -4 -7 -16 -7 -26 0 -10 -7 -18 -15 -18 -8 0 -15 -4
-15 -10 0 -5 7 -10 15 -10 12 0 15 -13 15 -61 0 -73 12 -99 45 -99 31 0 32 12
3 25 -20 9 -23 19 -26 73 l-3 62 31 0 c37 0 40 18 3 22 -19 2 -29 10 -33 26
-3 13 -8 20 -13 16z"/>
<path d="M2608 1313 c-52 -6 -48 -25 5 -23 73 3 77 2 77 -25 0 -23 -3 -25 -49
-25 -58 0 -73 -14 -69 -67 3 -36 5 -38 40 -41 20 -2 46 2 57 7 13 7 22 8 26 1
16 -26 25 -3 25 65 0 62 -4 79 -20 95 -11 11 -28 19 -37 18 -10 -1 -35 -3 -55
-5z m82 -118 c0 -18 -8 -28 -27 -36 -36 -14 -67 -8 -71 14 -6 29 17 47 59 47
35 0 39 -3 39 -25z"/>
<path d="M3483 1305 c-18 -8 -33 -10 -33 -5 0 6 -4 10 -10 10 -6 0 -10 -37
-10 -90 0 -53 4 -90 10 -90 6 0 10 30 10 70 0 75 10 90 62 90 38 0 48 -19 48
-92 0 -39 4 -68 10 -68 15 0 13 143 -2 162 -19 24 -49 29 -85 13z"/>
<path d="M3703 1313 c-51 -7 -39 -24 15 -22 56 3 72 -4 72 -32 0 -16 -7 -19
-47 -19 -66 0 -75 -8 -71 -61 3 -43 4 -44 40 -47 20 -2 46 2 58 8 13 7 20 7
20 0 0 -5 5 -10 10 -10 6 0 10 35 10 85 0 106 -5 110 -107 98z m87 -118 c0
-47 -92 -62 -98 -16 -5 29 12 41 61 41 33 0 37 -3 37 -25z"/>
<path d="M7395 1313 c-11 -3 -24 -9 -29 -14 -6 -5 -15 -4 -23 2 -11 9 -13 -5
-13 -80 0 -54 4 -91 10 -91 6 0 10 32 10 75 l0 74 35 7 c59 11 65 4 65 -81 0
-43 4 -75 10 -75 12 0 14 149 2 166 -9 15 -42 23 -67 17z"/>
<path d="M1346 1288 c-9 -12 -16 -43 -16 -68 0 -67 20 -90 80 -90 66 0 80 16
80 90 0 74 -14 90 -80 90 -39 0 -52 -4 -64 -22z m114 -17 c5 -11 10 -34 10
-51 0 -52 -16 -70 -60 -70 -44 0 -60 18 -60 70 0 52 16 70 60 70 29 0 42 -5
50 -19z"/>
<path d="M1760 1220 c0 -53 4 -90 10 -90 6 0 10 30 10 70 0 66 1 71 26 80 14
6 36 10 50 10 13 0 24 5 24 10 0 13 -56 13 -81 0 -13 -7 -19 -7 -19 0 0 5 -4
10 -10 10 -6 0 -10 -37 -10 -90z"/>
<path d="M1971 1301 c-18 -12 -26 -107 -12 -143 10 -27 14 -28 76 -28 37 0 65
4 65 10 0 6 -25 10 -55 10 -45 0 -56 4 -66 21 -15 29 -3 37 61 41 54 3 55 3
58 36 2 18 -2 40 -9 48 -13 16 -95 19 -118 5z m104 -31 c10 -30 -2 -40 -50
-40 -49 0 -61 10 -45 40 15 28 86 29 95 0z"/>
<path d="M2330 1168 c0 -86 4 -138 10 -138 6 0 10 24 10 53 l0 52 52 -4 c64
-4 78 11 78 87 0 84 -9 93 -85 90 l-65 -3 0 -137z m120 103 c14 -27 13 -84 -3
-105 -9 -13 -23 -17 -52 -14 l-40 3 -3 62 c-3 66 -1 69 60 72 18 1 31 -6 38
-18z"/>
<path d="M2810 1220 c0 -53 4 -90 10 -90 6 0 10 30 10 70 0 66 1 71 26 80 14
6 36 10 50 10 13 0 24 5 24 10 0 13 -56 13 -81 0 -13 -7 -19 -7 -19 0 0 5 -4
10 -10 10 -6 0 -10 -37 -10 -90z"/>
<path d="M3200 1291 c-5 -11 -10 -43 -10 -71 0 -80 9 -90 85 -90 37 0 65 4 65
10 0 6 -25 10 -55 10 -43 0 -56 4 -65 19 -18 34 -11 40 53 43 l62 3 3 33 c5
48 -12 62 -74 62 -42 0 -55 -4 -64 -19z m115 -21 c10 -31 -2 -40 -56 -40 -51
0 -57 7 -39 41 15 28 86 27 95 -1z"/>
<path d="M3910 1220 c0 -53 4 -90 10 -90 6 0 10 37 10 90 0 53 -4 90 -10 90
-6 0 -10 -37 -10 -90z"/>
<path d="M4030 1221 c0 -54 4 -91 10 -91 6 0 10 30 10 70 0 75 10 90 64 90 14
0 26 5 26 10 0 13 -50 13 -70 0 -9 -5 -19 -5 -27 2 -10 8 -13 -8 -13 -81z"/>
<path d="M4232 1298 c-16 -16 -16 -140 0 -156 14 -14 128 -16 128 -2 0 5 -26
10 -57 12 -55 3 -58 4 -61 31 -3 27 -2 27 51 27 67 0 84 15 71 63 -9 30 -12
32 -64 35 -34 2 -60 -2 -68 -10z m106 -40 c3 -27 2 -28 -47 -28 -42 0 -51 3
-51 18 0 28 22 43 60 40 30 -3 35 -7 38 -30z"/>
<path d="M4599 1263 c10 -27 27 -67 36 -90 9 -24 23 -43 30 -43 7 0 21 19 30
43 54 133 55 137 41 137 -7 0 -25 -31 -40 -70 -15 -38 -29 -70 -31 -70 -2 0
-16 32 -31 70 -15 39 -33 70 -40 70 -11 0 -9 -11 5 -47z"/>
<path d="M4841 1296 c-19 -23 -25 -89 -11 -130 l12 -36 64 0 c80 0 85 18 7 22
-55 3 -58 5 -61 30 -3 26 -2 27 55 30 l58 3 0 45 0 45 -56 3 c-40 2 -59 -1
-68 -12z m104 -36 c0 -23 -4 -25 -47 -28 -45 -3 -48 -1 -48 21 0 33 8 38 55
35 35 -3 40 -6 40 -28z"/>
<path d="M5060 1220 c0 -53 4 -90 10 -90 6 0 10 28 10 64 0 56 3 67 22 80 12
9 35 16 50 16 16 0 28 5 28 10 0 13 -63 13 -77 -1 -8 -8 -13 -8 -17 0 -18 28
-26 3 -26 -79z"/>
<path d="M5264 1296 c-3 -8 -4 -29 -2 -48 3 -32 4 -33 58 -38 51 -5 55 -7 55
-30 0 -23 -4 -25 -57 -28 -32 -2 -58 -7 -58 -13 0 -6 27 -9 68 -7 l67 3 0 45
0 45 -55 5 c-51 5 -55 7 -58 33 -3 27 -2 27 52 27 31 0 56 5 56 10 0 16 -120
13 -126 -4z"/>
<path d="M5902 1298 c-16 -16 -16 -140 0 -156 14 -14 128 -16 128 -2 0 5 -26
10 -57 12 -55 3 -58 5 -61 30 -3 26 -2 27 55 30 l58 3 0 45 0 45 -55 3 c-34 2
-60 -2 -68 -10z m103 -38 c0 -23 -4 -25 -47 -28 -50 -3 -57 4 -42 43 5 12 17
15 48 13 36 -3 41 -6 41 -28z"/>
<path d="M6120 1304 c0 -3 13 -23 30 -44 l30 -37 -30 -42 c-34 -47 -36 -51
-16 -51 8 0 23 14 33 30 9 17 21 30 25 30 4 0 17 -13 30 -30 36 -50 53 -36 18
15 l-31 46 31 42 c38 52 20 65 -22 16 -29 -36 -31 -35 -59 14 -9 16 -39 25
-39 11z"/>
<path d="M6350 1291 c-5 -11 -10 -43 -10 -71 0 -79 10 -90 80 -90 33 0 60 4
60 10 0 6 -22 10 -50 10 -55 0 -70 15 -70 70 0 55 15 70 70 70 28 0 50 5 50
10 0 6 -27 10 -60 10 -48 0 -61 -4 -70 -19z"/>
<path d="M6570 1291 c-5 -11 -10 -43 -10 -71 0 -79 10 -90 80 -90 33 0 60 4
60 10 0 6 -22 10 -48 10 -51 0 -72 12 -72 42 0 15 9 18 59 18 62 0 71 7 71 54
0 34 -19 46 -77 46 -41 0 -54 -4 -63 -19z m115 -21 c10 -31 -2 -40 -56 -40
-51 0 -57 7 -39 41 15 28 86 27 95 -1z"/>
<path d="M7102 1298 c-7 -7 -12 -40 -12 -78 0 -38 5 -71 12 -78 14 -14 128
-16 128 -2 0 5 -26 10 -57 12 -55 3 -58 4 -61 31 -3 27 -3 27 53 27 48 0 57 3
66 23 7 15 7 31 0 50 -10 25 -15 27 -64 27 -29 0 -58 -5 -65 -12z m106 -40 c3
-27 2 -28 -47 -28 -42 0 -51 3 -51 18 0 28 22 43 60 40 30 -3 35 -7 38 -30z"/>
<path d="M7570 1284 c-6 -14 -10 -43 -10 -64 0 -21 4 -50 10 -64 9 -24 14 -26
70 -26 74 0 80 18 8 22 -50 3 -53 5 -62 36 -5 19 -5 45 0 65 9 30 12 32 62 35
72 4 66 22 -8 22 -56 0 -61 -2 -70 -26z"/>
<path d="M7801 1301 c-18 -12 -26 -107 -12 -143 10 -27 14 -28 76 -28 37 0 65
4 65 10 0 6 -25 10 -55 10 -45 0 -56 4 -66 21 -15 29 -3 37 61 41 54 3 55 3
58 36 2 18 -2 40 -9 48 -13 16 -95 19 -118 5z m104 -31 c10 -31 -2 -40 -56
-40 -51 0 -57 7 -39 41 15 28 86 27 95 -1z"/>
</g>
</svg>
